<svg width="47" height="24" viewBox="0 0 47 24" fill="none" xmlns="http://www.w3.org/2000/svg">
    <path d="M35 24C41.6274 24 47 18.6274 47 12C47 5.37258 41.6274 0 35 0C28.3726 0 23 5.37258 23 12C23 18.6274 28.3726 24 35 24Z" fill="#F0F0F0"/>
    <path d="M25.4806 4.69416C24.538 5.92055 23.8273 7.33406 23.4134 8.86964H29.6561L25.4806 4.69416Z" fill="#0052B4"/>
    <path d="M46.5866 8.86964C46.1728 7.33411 45.4619 5.92059 44.5194 4.6942L40.344 8.86964H46.5866Z" fill="#0052B4"/>
    <path d="M23.4134 15.1305C23.8273 16.666 24.5381 18.0795 25.4806 19.3059L29.656 15.1305H23.4134Z" fill="#0052B4"/>
    <path d="M42.3059 2.48067C41.0795 1.53806 39.666 0.827297 38.1304 0.413391V6.65606L42.3059 2.48067Z" fill="#0052B4"/>
    <path d="M27.6942 21.5193C28.9205 22.4619 30.3341 23.1727 31.8696 23.5866V17.344L27.6942 21.5193Z" fill="#0052B4"/>
    <path d="M31.8695 0.413391C30.334 0.827297 28.9205 1.53806 27.6942 2.48063L31.8695 6.65602V0.413391Z" fill="#0052B4"/>
    <path d="M38.1304 23.5866C39.666 23.1727 41.0795 22.4619 42.3058 21.5194L38.1304 17.344V23.5866Z" fill="#0052B4"/>
    <path d="M40.344 15.1305L44.5194 19.3059C45.4619 18.0796 46.1728 16.666 46.5866 15.1305H40.344Z" fill="#0052B4"/>
    <path d="M46.8984 10.4348H36.5653H36.5653V0.101578C36.0529 0.034875 35.5305 0 35 0C34.4694 0 33.9471 0.034875 33.4348 0.101578V10.4347V10.4347H23.1016C23.0349 10.9471 23 11.4695 23 12C23 12.5306 23.0349 13.0529 23.1016 13.5652H33.4347H33.4347V23.8984C33.9471 23.9651 34.4694 24 35 24C35.5305 24 36.0529 23.9652 36.5652 23.8984V13.5653V13.5653H46.8984C46.9651 13.0529 47 12.5306 47 12C47 11.4695 46.9651 10.9471 46.8984 10.4348Z" fill="#D80027"/>
    <path d="M38.1304 15.1305L43.4852 20.4853C43.7315 20.2391 43.9665 19.9817 44.1906 19.7149L39.6062 15.1305H38.1304V15.1305Z" fill="#D80027"/>
    <path d="M31.8696 15.1305H31.8695L26.5147 20.4853C26.7609 20.7315 27.0183 20.9665 27.2851 21.1906L31.8696 16.6061V15.1305Z" fill="#D80027"/>
    <path d="M31.8696 8.86964V8.86955L26.5148 3.51469C26.2685 3.76088 26.0335 4.01827 25.8094 4.28508L30.3939 8.86959H31.8696V8.86964Z" fill="#D80027"/>
    <path d="M38.1304 8.86964L43.4853 3.51473C43.2391 3.26845 42.9817 3.03352 42.7149 2.80941L38.1304 7.39392V8.86964V8.86964Z" fill="#D80027"/>
    <path d="M6.65625 17H1.81055V8.43359H6.65625V9.61719H3.21094V11.9492H6.43945V13.1211H3.21094V15.8105H6.65625V17ZM14.0684 17H12.6855V13.0156C12.6855 12.5156 12.584 12.1426 12.3809 11.8965C12.1816 11.6504 11.8633 11.5273 11.4258 11.5273C10.8438 11.5273 10.418 11.6992 10.1484 12.043C9.87891 12.3867 9.74414 12.9629 9.74414 13.7715V17H8.36719V10.5195H9.44531L9.63867 11.3691H9.70898C9.9043 11.0605 10.1816 10.8223 10.541 10.6543C10.9004 10.4863 11.2988 10.4023 11.7363 10.4023C13.291 10.4023 14.0684 11.1934 14.0684 12.7754V17Z" fill="white"/>
</svg>