<svg width="152" height="58" viewBox="0 0 152 58" fill="none" xmlns="http://www.w3.org/2000/svg">
    <path d="M5.38281 14L2.23438 5.77344H2.18359C2.24284 6.42513 2.27246 7.19954 2.27246 8.09668V14H1.27588V4.71973H2.90088L5.83984 12.375H5.89062L8.85498 4.71973H10.4673V14H9.38818V8.02051C9.38818 7.33496 9.41781 6.59017 9.47705 5.78613H9.42627L6.25244 14H5.38281ZM13.4071 9.91846H15.305C16.1895 9.91846 16.8433 10.0835 17.2664 10.4136C17.6938 10.7394 17.9076 11.2282 17.9076 11.8799C17.9076 12.5781 17.6812 13.1071 17.2284 13.4668C16.7798 13.8223 16.1175 14 15.2415 14H12.3534V7.04297H13.4071V9.91846ZM20.1292 14H19.0755V7.04297H20.1292V14ZM13.4071 10.8262V13.1177H15.1908C16.3079 13.1177 16.8665 12.7262 16.8665 11.9434C16.8665 11.554 16.7375 11.2705 16.4793 11.0928C16.2212 10.915 15.7811 10.8262 15.159 10.8262H13.4071ZM30.376 8.78857C30.376 9.24137 30.2448 9.58626 29.9824 9.82324C29.7243 10.056 29.3603 10.2126 28.8906 10.293V10.3501C29.4831 10.4305 29.9147 10.604 30.1855 10.8706C30.4606 11.1372 30.5981 11.5054 30.5981 11.9751C30.5981 12.6226 30.359 13.1219 29.8809 13.4731C29.4069 13.8244 28.7129 14 27.7988 14H24.7329V7.04297H27.7861C29.5127 7.04297 30.376 7.62484 30.376 8.78857ZM29.5444 11.9053C29.5444 11.5286 29.4005 11.2557 29.1128 11.0864C28.8293 10.9129 28.3574 10.8262 27.6973 10.8262H25.7866V13.1177H27.7227C28.9372 13.1177 29.5444 12.7135 29.5444 11.9053ZM29.3477 8.89014C29.3477 8.5516 29.2165 8.3125 28.9541 8.17285C28.696 8.02897 28.3024 7.95703 27.7734 7.95703H25.7866V9.91846H27.5703C28.222 9.91846 28.6811 9.83805 28.9478 9.67725C29.2144 9.51644 29.3477 9.25407 29.3477 8.89014ZM37.2775 14.127C36.2703 14.127 35.4896 13.818 34.9352 13.2002C34.3851 12.5781 34.11 11.7 34.11 10.5659C34.11 9.40218 34.3893 8.50293 34.9479 7.86816C35.5107 7.2334 36.3105 6.91602 37.3473 6.91602C37.6816 6.91602 38.0159 6.95199 38.3503 7.02393C38.6846 7.09587 38.9469 7.1805 39.1374 7.27783L38.8136 8.17285C38.5809 8.07975 38.327 8.00358 38.0519 7.94434C37.7768 7.88086 37.5335 7.84912 37.3219 7.84912C35.9085 7.84912 35.2018 8.75049 35.2018 10.5532C35.2018 11.408 35.3732 12.064 35.716 12.521C36.063 12.978 36.575 13.2065 37.2521 13.2065C37.8319 13.2065 38.4264 13.0817 39.0358 12.832V13.7651C38.5703 14.0063 37.9842 14.127 37.2775 14.127ZM46.1904 10.5151C46.1904 11.6493 45.9048 12.5358 45.3335 13.1748C44.7622 13.8096 43.973 14.127 42.9658 14.127C42.3437 14.127 41.7915 13.981 41.3091 13.689C40.8267 13.397 40.4543 12.978 40.1919 12.4321C39.9295 11.8862 39.7983 11.2472 39.7983 10.5151C39.7983 9.38102 40.0819 8.4987 40.6489 7.86816C41.216 7.2334 42.0031 6.91602 43.0102 6.91602C43.9836 6.91602 44.7559 7.23975 45.3271 7.88721C45.9027 8.53467 46.1904 9.41064 46.1904 10.5151ZM40.8901 10.5151C40.8901 11.4038 41.0679 12.0809 41.4233 12.5464C41.7788 13.0119 42.3014 13.2446 42.9912 13.2446C43.681 13.2446 44.2036 13.014 44.5591 12.5527C44.9188 12.0872 45.0986 11.408 45.0986 10.5151C45.0986 9.6307 44.9188 8.95996 44.5591 8.50293C44.2036 8.04167 43.6768 7.81104 42.9785 7.81104C42.2887 7.81104 41.7682 8.03743 41.417 8.49023C41.0657 8.94303 40.8901 9.618 40.8901 10.5151ZM54.3226 16.4058H53.2689V14H47.5369V7.04297H48.5906V13.0923H52.285V7.04297H53.3387V13.0923H54.3226V16.4058ZM57.9479 14.127C56.9407 14.127 56.16 13.818 55.6056 13.2002C55.0555 12.5781 54.7804 11.7 54.7804 10.5659C54.7804 9.40218 55.0597 8.50293 55.6183 7.86816C56.1811 7.2334 56.9809 6.91602 58.0177 6.91602C58.352 6.91602 58.6864 6.95199 59.0207 7.02393C59.355 7.09587 59.6173 7.1805 59.8078 7.27783L59.484 8.17285C59.2513 8.07975 58.9974 8.00358 58.7223 7.94434C58.4473 7.88086 58.2039 7.84912 57.9923 7.84912C56.5789 7.84912 55.8722 8.75049 55.8722 10.5532C55.8722 11.408 56.0436 12.064 56.3864 12.521C56.7334 12.978 57.2454 13.2065 57.9225 13.2065C58.5023 13.2065 59.0968 13.0817 59.7062 12.832V13.7651C59.2407 14.0063 58.6546 14.127 57.9479 14.127ZM63.7949 14.127C62.7666 14.127 61.9541 13.8138 61.3574 13.1875C60.765 12.5612 60.4687 11.6916 60.4687 10.5786C60.4687 9.45719 60.7438 8.56641 61.2939 7.90625C61.8483 7.24609 62.591 6.91602 63.522 6.91602C64.3937 6.91602 65.0835 7.20378 65.5913 7.7793C66.0991 8.35059 66.353 9.10596 66.353 10.0454V10.7119H61.5605C61.5817 11.5286 61.7869 12.1486 62.1763 12.5718C62.5698 12.995 63.1221 13.2065 63.833 13.2065C64.582 13.2065 65.3226 13.05 66.0547 12.7368V13.6763C65.6823 13.8371 65.3289 13.9513 64.9946 14.019C64.6645 14.091 64.2646 14.127 63.7949 14.127ZM63.5093 7.79834C62.9507 7.79834 62.5042 7.98031 62.1699 8.34424C61.8398 8.70817 61.6452 9.21175 61.5859 9.85498H65.2231C65.2231 9.19059 65.075 8.68278 64.7788 8.33154C64.4826 7.97607 64.0594 7.79834 63.5093 7.79834ZM72.3397 7.94434H70.0799V14H69.0262V7.94434H66.7918V7.04297H72.3397V7.94434ZM73.5592 14H72.3278L74.3273 11.061C73.7899 10.9425 73.3773 10.714 73.0895 10.3755C72.806 10.0327 72.6642 9.60319 72.6642 9.08691C72.6642 8.45215 72.8779 7.9528 73.3053 7.58887C73.7327 7.22493 74.3294 7.04297 75.0954 7.04297H78.193V14H77.1393V11.2197H75.381L73.5592 14ZM73.6925 9.09961C73.6925 9.90365 74.2765 10.3057 75.4445 10.3057H77.1393V7.95703H75.2287C74.2046 7.95703 73.6925 8.33789 73.6925 9.09961ZM81.6025 10.439L79.1841 7.04297H80.3838L82.2182 9.70898L84.0464 7.04297H85.2334L82.8149 10.439L85.3603 14H84.167L82.2182 11.1816L80.2505 14H79.0571L81.6025 10.439ZM86.0848 13.3271C86.0848 13.0436 86.1483 12.8299 86.2752 12.686C86.4064 12.5379 86.5926 12.4639 86.8338 12.4639C87.0792 12.4639 87.2697 12.5379 87.4051 12.686C87.5447 12.8299 87.6146 13.0436 87.6146 13.3271C87.6146 13.6022 87.5447 13.8138 87.4051 13.9619C87.2654 14.11 87.075 14.1841 86.8338 14.1841C86.618 14.1841 86.4381 14.1185 86.2943 13.9873C86.1546 13.8519 86.0848 13.6318 86.0848 13.3271ZM86.0848 7.72217C86.0848 7.15088 86.3345 6.86523 86.8338 6.86523C87.3543 6.86523 87.6146 7.15088 87.6146 7.72217C87.6146 7.99723 87.5447 8.20882 87.4051 8.35693C87.2654 8.50505 87.075 8.5791 86.8338 8.5791C86.618 8.5791 86.4381 8.51351 86.2943 8.38232C86.1546 8.24691 86.0848 8.02686 86.0848 7.72217Z" fill="white"/>
    <circle cx="136" cy="42" r="16" fill="#2E2FB2"/>
    <path d="M139.771 33H132.229C129.346 33 127 35.3456 127 38.2287V45.7713C127 48.6544 129.346 51 132.229 51H139.771C142.654 51 145 48.6544 145 45.7713V38.2287C145 35.3456 142.654 33 139.771 33ZM143.594 45.7713C143.594 47.879 141.879 49.5938 139.771 49.5938H132.229C130.121 49.5938 128.406 47.879 128.406 45.7713V38.2287C128.406 36.121 130.121 34.4062 132.229 34.4062H139.771C141.879 34.4062 143.594 36.121 143.594 38.2287V45.7713Z" fill="white"/>
    <path d="M136 37.1484C133.325 37.1484 131.148 39.3248 131.148 42C131.148 44.6752 133.325 46.8516 136 46.8516C138.675 46.8516 140.852 44.6752 140.852 42C140.852 39.3248 138.675 37.1484 136 37.1484ZM136 45.4453C134.1 45.4453 132.555 43.8997 132.555 42C132.555 40.1003 134.1 38.5547 136 38.5547C137.9 38.5547 139.445 40.1003 139.445 42C139.445 43.8997 137.9 45.4453 136 45.4453Z" fill="white"/>
    <path d="M140.922 37.7812C141.31 37.7812 141.625 37.4665 141.625 37.0781C141.625 36.6898 141.31 36.375 140.922 36.375C140.534 36.375 140.219 36.6898 140.219 37.0781C140.219 37.4665 140.534 37.7812 140.922 37.7812Z" fill="white"/>
    <circle cx="96" cy="42" r="16" fill="#2E2FB2"/>
    <path d="M103.969 37.566C103.381 37.8266 102.75 38.0027 102.087 38.0819C102.764 37.6764 103.283 37.0344 103.528 36.2693C102.895 36.6448 102.194 36.9174 101.447 37.0643C100.85 36.4276 99.9982 36.0298 99.0558 36.0298C97.2465 36.0298 95.7797 37.4966 95.7797 39.3059C95.7797 39.5626 95.8087 39.8127 95.8645 40.0525C93.1417 39.9158 90.7276 38.6116 89.1118 36.6294C88.8298 37.1133 88.6682 37.676 88.6682 38.2765C88.6682 39.4131 89.2466 40.4159 90.1257 41.0034C89.5886 40.9864 89.0834 40.839 88.6418 40.5936C88.6415 40.6073 88.6415 40.621 88.6415 40.6348C88.6415 42.2222 89.7708 43.5463 91.2695 43.8473C90.9946 43.9221 90.7052 43.9623 90.4064 43.9623C90.1952 43.9623 89.99 43.9417 89.7899 43.9034C90.2069 45.2049 91.4168 46.1523 92.8504 46.1786C91.7292 47.0574 90.3165 47.5811 88.7815 47.5811C88.5171 47.5811 88.2563 47.5656 88 47.5352C89.4499 48.4649 91.172 49.0073 93.0221 49.0073C99.0482 49.0073 102.344 44.0151 102.344 39.6857C102.344 39.5437 102.34 39.4024 102.334 39.2618C102.974 38.8 103.53 38.223 103.969 37.566Z" fill="white"/>
    <circle cx="56" cy="42" r="16" fill="#2E2FB2"/>
    <path d="M52.2581 42.5216H54.0119V49.7419C54.0119 49.8845 54.1274 50 54.27 50H57.2437C57.3863 50 57.5018 49.8845 57.5018 49.7419V42.5556H59.518C59.6491 42.5556 59.7594 42.4572 59.7743 42.327L60.0806 39.6689C60.089 39.5957 60.0658 39.5225 60.0169 39.4676C59.9679 39.4127 59.8978 39.3813 59.8243 39.3813H57.5019V37.715C57.5019 37.2127 57.7723 36.958 58.3058 36.958C58.3818 36.958 59.8243 36.958 59.8243 36.958C59.9668 36.958 60.0823 36.8424 60.0823 36.6999V34.26C60.0823 34.1174 59.9668 34.0019 59.8243 34.0019H57.7316C57.7169 34.0012 57.6841 34 57.6358 34C57.2727 34 56.0106 34.0713 55.0136 34.9884C53.909 36.0048 54.0626 37.2217 54.0993 37.4327V39.3812H52.2581C52.1155 39.3812 52 39.4967 52 39.6393V42.2635C52 42.406 52.1155 42.5216 52.2581 42.5216Z" fill="white"/>
    <circle cx="16" cy="42" r="16" fill="#2E2FB2"/>
    <path d="M22.4591 43.4634C23.0549 44.0451 23.6838 44.5924 24.2182 45.2328C24.4542 45.5174 24.6777 45.811 24.8487 46.1413C25.091 46.6108 24.8715 47.1274 24.4506 47.1554L21.8338 47.1542C21.1589 47.2102 20.6205 46.9385 20.1677 46.4771C19.8054 46.1081 19.4699 45.7153 19.1216 45.3338C18.9787 45.1779 18.8293 45.0312 18.6507 44.9152C18.2934 44.6833 17.9834 44.7543 17.7792 45.1269C17.5713 45.5059 17.5242 45.9255 17.5037 46.3478C17.4757 46.964 17.2895 47.126 16.6705 47.1542C15.3477 47.2166 14.0923 47.0164 12.9261 46.3491C11.8979 45.7609 11.1006 44.9304 10.4066 43.9902C9.05543 42.1594 8.0207 40.1478 7.09072 38.0797C6.88138 37.6138 7.03447 37.3637 7.54856 37.3548C8.40224 37.3382 9.25579 37.3394 10.1105 37.3536C10.4574 37.3587 10.6871 37.5577 10.8211 37.8855C11.2829 39.0211 11.8481 40.1016 12.5575 41.1031C12.7464 41.3698 12.939 41.6364 13.2133 41.8241C13.5168 42.0319 13.7478 41.963 13.8906 41.6249C13.9812 41.4106 14.0208 41.1797 14.0413 40.9501C14.1089 40.1603 14.1178 39.3719 13.9992 38.5848C13.9263 38.0936 13.6497 37.7757 13.1595 37.6827C12.9094 37.6353 12.9467 37.5422 13.0678 37.3995C13.2781 37.1533 13.4759 37 13.8703 37H16.8277C17.2932 37.0919 17.3966 37.301 17.4604 37.7695L17.4629 41.0545C17.4578 41.2359 17.5535 41.7741 17.8802 41.8941C18.1416 41.9796 18.3139 41.7704 18.4708 41.6046C19.1789 40.8531 19.6842 39.965 20.1357 39.0453C20.3361 38.641 20.5083 38.221 20.6753 37.8014C20.799 37.49 20.9931 37.3368 21.3438 37.3436L24.1901 37.3461C24.2745 37.3461 24.3599 37.3474 24.4417 37.3614C24.9213 37.4431 25.0527 37.6494 24.9046 38.1178C24.6712 38.8526 24.217 39.4649 23.773 40.0801C23.2983 40.7369 22.7907 41.3712 22.32 42.0319C21.8875 42.6352 21.9218 42.9394 22.4591 43.4634Z" fill="white"/>
</svg>
